<svg width="513" height="342" viewBox="0 0 513 342" fill="none" xmlns="http://www.w3.org/2000/svg">
    <g clip-path="url(#clip0_301_997)">
        <path d="M0 -0.00585938H513V341.994H0V-0.00585938Z" fill="#E52D42" />
        <path
            d="M393.3 68.1941H347.5L313.7 148.394L279.3 125.494C279.3 125.494 254.6 66.3941 244.9 57.2941C235.2 47.5941 226.2 56.6941 196 65.0941C166.4 73.4941 165.2 83.7941 153.8 83.7941C149 83.7941 133.9 66.2941 126.1 61.4941C114 53.6941 109.2 57.2941 112.2 68.6941C113.4 73.4941 123.1 79.5941 129.1 88.5941C136.9 100.094 141.8 114.494 141.8 114.494C141.8 114.494 152.7 104.194 158.7 102.394C167.7 99.9941 178 104.194 190.1 102.394C205.2 99.9941 221.5 91.4941 221.5 91.4941L225.7 134.894C225.7 134.894 171.4 185.594 176.2 205.494C181 225.394 232.3 250.094 244.4 268.194C256.5 285.694 237.2 292.294 237.2 300.794C237.2 309.294 235.4 320.694 244.4 317.094C253.4 313.494 254.7 298.994 263.1 285.694C269.1 276.694 273.4 271.794 274.6 268.194C276.4 259.194 251.1 236.194 237.2 219.294C230.6 211.494 217.3 200.594 217.3 200.594L256.5 170.994C256.5 170.994 324.1 198.694 339.1 189.694C354.2 180.694 358.4 91.3941 358.4 91.3941L405.4 79.8941L393.3 68.1941Z"
            fill="white" />
        <path
            d="M279.3 262.394C273.3 262.394 267.8 257.594 267.8 250.894C267.8 244.194 272.6 239.394 279.3 239.394C285.3 239.394 290.8 244.194 290.8 250.894C290.8 257.594 285.3 262.394 279.3 262.394ZM325.1 79.5941C319.1 79.5941 313.6 74.7941 313.6 68.0941C313.6 61.3941 318.4 56.5941 325.1 56.5941C331.1 56.5941 336.6 61.3941 336.6 68.0941C336.6 74.7941 331.1 79.5941 325.1 79.5941ZM325.1 170.694C319.1 170.694 313.6 165.894 313.6 159.194C313.6 153.194 318.4 147.694 325.1 147.694C331.1 147.694 336.6 152.494 336.6 159.194C336 165.894 331.1 170.694 325.1 170.694ZM188.2 216.494C182.2 216.494 176.7 211.694 176.7 204.994C176.7 198.994 181.5 193.494 188.2 193.494C194.8 193.494 199.7 198.294 199.7 204.994C199.7 211.694 194.2 216.494 188.2 216.494ZM233.4 79.5941C227.4 79.5941 221.9 74.7941 221.9 68.0941C221.9 61.3941 226.7 56.5941 233.4 56.5941C239.4 56.5941 244.9 61.3941 244.9 68.0941C244.9 74.7941 240.1 79.5941 233.4 79.5941ZM256.3 170.694C250.3 170.694 244.8 160.394 244.8 147.794C244.8 135.194 249.6 124.894 256.3 124.894C262.3 124.894 267.8 135.194 267.8 147.794C267.8 160.394 263 170.694 256.3 170.694ZM142.3 125.494C136.3 125.494 130.8 120.694 130.8 113.994C130.8 107.394 135.6 102.494 142.3 102.494C148.9 102.494 153.8 107.294 153.8 113.994C153.8 120.594 149 125.494 142.3 125.494Z"
            fill="#F8DD4E" />
    </g>
    <defs>
        <clipPath id="clip0_301_997">
            <rect width="513" height="342" fill="white" transform="translate(0 -0.00585938)" />
        </clipPath>
    </defs>
</svg>
