<svg width="513" height="342" viewBox="0 0 513 342" fill="none" xmlns="http://www.w3.org/2000/svg">
    <g clip-path="url(#clip0_301_967)">
        <path d="M0 -0.00830078H513V341.992H0V-0.00830078Z" fill="white" />
        <path d="M0 -0.00830078H513V113.992H0V-0.00830078Z" fill="#CE1126" />
        <path d="M0 227.992H513V341.992H0V227.992Z" fill="black" />
        <path
            d="M219.2 160.692H189.9C191.4 154.992 196.5 150.792 202.7 150.792V130.892C184.4 130.892 169.6 145.792 169.6 163.992V180.492H219.2C221 180.492 222.5 181.992 222.5 183.792V190.392H156.3V210.292H242.4V183.792C242.4 171.092 232 160.692 219.2 160.692ZM268.8 190.492V130.892H249V210.392H282.1V190.492H268.8ZM335 190.492V130.892H315.2V190.492H308.6V170.692H288.7V210.392H348.3V190.492H335Z"
            fill="#547C31" />
    </g>
    <defs>
        <clipPath id="clip0_301_967">
            <rect width="513" height="342" fill="white" transform="translate(0 -0.00830078)" />
        </clipPath>
    </defs>
</svg>
