<svg width="513" height="342" viewBox="0 0 513 342" fill="none" xmlns="http://www.w3.org/2000/svg">
    <g clip-path="url(#clip0_301_947)">
        <path d="M0 -0.0078125H513V341.992H0V-0.0078125Z" fill="white" />
        <path
            d="M301.8 170.992L513 30.1922V-0.0078125H467.7L256.5 140.792L45.3 -0.0078125H0V30.1922L211.2 170.992L0 311.792V341.992H45.3L256.5 201.192L467.7 341.992H513V311.792L301.8 170.992Z"
            fill="#D80027" />
        <path
            d="M233.7 44.592L256 50.192L278.3 44.592L282.3 23.692L267.4 30.192L256 14.792L244.6 30.192L229.7 23.692L233.7 44.592Z"
            fill="#FFDA44" />
        <path
            d="M233.7 44.5918C233.7 44.5918 229.7 57.4918 229.7 74.4918C229.7 102.392 256 115.792 256 115.792C256 115.792 282.3 100.292 282.3 74.4918C282.3 59.0918 278.3 44.5918 278.3 44.5918C278.3 44.5918 270.2 39.5918 256 39.5918C241.8 39.5918 233.7 44.5918 233.7 44.5918Z"
            fill="#D80027" />
    </g>
    <defs>
        <clipPath id="clip0_301_947">
            <rect width="513" height="342" fill="white" transform="translate(0 -0.0078125)" />
        </clipPath>
    </defs>
</svg>
