<svg width="513" height="342" viewBox="0 0 513 342" fill="none" xmlns="http://www.w3.org/2000/svg">
    <g clip-path="url(#clip0_301_763)">
        <path d="M0 -0.0078125H513V341.992H0V-0.0078125Z" fill="#003787" />
        <path d="M0 -0.0078125H513L285 227.992V341.992H228V227.992L0 -0.0078125Z" fill="white" />
        <path
            d="M256.5 180.492C277.487 180.492 294.5 163.479 294.5 142.492C294.5 121.505 277.487 104.492 256.5 104.492C235.513 104.492 218.5 121.505 218.5 142.492C218.5 163.479 235.513 180.492 256.5 180.492Z"
            fill="#F9D90F" />
        <path d="M209 142.492H304L256.5 227.992L209 142.492Z" fill="white" />
        <path d="M256.5 227.992L180.5 156.742H332.5L256.5 227.992Z" fill="#CF142B" />
    </g>
    <defs>
        <clipPath id="clip0_301_763">
            <rect width="513" height="342" fill="white" transform="translate(0 -0.0078125)" />
        </clipPath>
    </defs>
</svg>
