<svg width="513" height="342" viewBox="0 0 513 342" fill="none" xmlns="http://www.w3.org/2000/svg">
    <g clip-path="url(#clip0_301_705)">
        <path d="M0 -0.00683594H513V341.993H0V-0.00683594Z" fill="#0052B4" />
        <path
            d="M512 148.393V192.893H278.3V341.293H233.7V192.893H0V148.393H233.7V-0.00683594H278.3V148.393H512Z"
            fill="white" />
        <path
            d="M101 36.0934C105.2 35.8934 109.3 35.9934 113.5 36.2934C119 36.6934 122.9 37.8934 122.6 36.7934C122.1 34.9934 122.5 34.5934 121.8 34.9934C120.5 35.9934 122.5 34.7934 114.4 39.3934C102.6 46.0934 97.4998 51.1934 100.1 60.3934C102.4 68.4934 108.3 70.6934 122.4 72.8934L124.3 73.1934C129.9 74.0934 132.4 74.5934 134.1 75.3934C134.5 75.5934 133.8 74.3934 134 73.6934C133.8 74.2934 130.1 75.7934 120.7 77.5934L116 78.4934C97.8998 82.1934 88.8998 86.9934 87.4998 99.4934C85.9998 113.193 100.2 122.793 118.1 125.093C136.3 127.493 152.2 121.493 153.8 106.693C154.8 97.2934 148.3 91.6934 137.9 89.5934C130.9 88.1934 121.6 88.1934 110.5 89.2934C98.0998 90.5934 85.7998 92.6934 73.5998 95.5934C69.9998 96.2934 67.6998 99.7934 68.3998 103.393C69.0998 106.993 72.5998 109.293 76.1998 108.593C76.3998 108.593 76.4998 108.493 76.6998 108.493C88.2998 105.793 99.9998 103.793 111.8 102.593C121.7 101.593 129.8 101.593 135.2 102.693C139.6 103.593 140.5 104.393 140.4 105.293C139.9 110.393 131.5 113.493 119.7 111.993C108.1 110.493 100.2 105.193 100.6 100.993C101.1 96.6934 105.9 94.1934 118.5 91.5934L123.1 90.6934C138.6 87.6934 144.2 85.3934 146.6 77.4934C148.5 70.9934 145.3 65.8934 139.4 63.2934C136.2 61.8934 133.1 61.1934 126.2 60.1934L124.4 59.8934C116.4 58.5934 113 57.2934 112.9 56.8934C112.8 56.4934 114.7 54.5934 121 50.9934L125.4 48.4934C126.9 47.6934 128.3 46.6934 129.7 45.7934C134.3 42.3934 136.9 38.6934 135.5 33.4934C133.6 26.1934 126.5 23.9934 114.6 23.0934C109.9 22.7934 105.3 22.6934 100.6 22.7934L98.5998 22.8934C94.8998 23.0934 92.0998 26.2934 92.2998 29.8934C92.4998 33.5934 95.6998 36.3934 99.2998 36.1934L101 36.0934ZM385 36.0934C389.2 35.8934 393.3 35.9934 397.5 36.2934C403 36.6934 406.9 37.8934 406.6 36.7934C406.1 34.9934 406.5 34.5934 405.8 34.9934C404.5 35.9934 406.5 34.7934 398.4 39.3934C386.6 46.0934 381.5 51.1934 384.1 60.3934C386.4 68.4934 392.3 70.6934 406.4 72.8934L408.3 73.1934C413.9 74.0934 416.4 74.5934 418.1 75.3934C418.5 75.5934 417.8 74.3934 418 73.6934C417.8 74.2934 414.1 75.7934 404.7 77.5934L400 78.4934C381.9 82.1934 372.9 86.9934 371.5 99.4934C370 113.193 384.2 122.793 402.1 125.093C420.3 127.493 436.2 121.493 437.8 106.693C438.8 97.2934 432.3 91.6934 421.9 89.5934C414.9 88.1934 405.6 88.1934 394.5 89.2934C382.1 90.5934 369.8 92.6934 357.6 95.5934C354 96.2934 351.7 99.7934 352.4 103.393C353.1 106.993 356.6 109.293 360.2 108.593C360.4 108.593 360.5 108.493 360.7 108.493C372.3 105.793 384 103.793 395.8 102.593C405.7 101.593 413.8 101.593 419.2 102.693C423.6 103.593 424.5 104.393 424.4 105.293C423.9 110.393 415.5 113.493 403.7 111.993C392.1 110.493 384.2 105.193 384.6 100.993C385.1 96.6934 389.9 94.1934 402.5 91.5934L407.1 90.6934C422.6 87.6934 428.2 85.3934 430.6 77.4934C432.5 70.9934 429.3 65.8934 423.4 63.2934C420.2 61.8934 417.1 61.1934 410.2 60.1934L408.4 59.8934C400.4 58.5934 397 57.2934 396.9 56.8934C396.8 56.4934 398.7 54.5934 405 50.9934L409.4 48.4934C410.9 47.6934 412.3 46.6934 413.7 45.7934C418.3 42.3934 420.9 38.6934 419.5 33.4934C417.6 26.1934 410.5 23.9934 398.6 23.0934C393.9 22.7934 389.3 22.6934 384.6 22.7934L382.6 22.8934C378.9 23.0934 376.1 26.2934 376.3 29.8934C376.5 33.5934 379.7 36.3934 383.3 36.1934L385 36.0934ZM379.6 235.093C383.8 234.893 387.9 234.993 392.1 235.293C397.6 235.693 401.5 236.893 401.2 235.793C400.7 233.993 401.1 233.593 400.4 233.993C399.1 234.993 401.1 233.793 393 238.393C381.2 245.093 376.1 250.193 378.7 259.393C381 267.493 386.9 269.693 401 271.893L402.9 272.193C408.5 273.093 411 273.593 412.7 274.393C413.1 274.593 412.4 273.393 412.6 272.693C412.4 273.293 408.7 274.793 399.3 276.593L394.6 277.493C376.5 281.193 367.5 285.993 366.1 298.493C364.6 312.193 378.8 321.793 396.7 324.093C414.9 326.493 430.8 320.493 432.4 305.693C433.4 296.293 426.9 290.693 416.5 288.593C409.5 287.193 400.2 287.193 389.1 288.293C376.7 289.593 364.4 291.693 352.2 294.593C348.6 295.293 346.3 298.793 347 302.393C347.7 305.993 351.2 308.293 354.8 307.593C355 307.593 355.1 307.493 355.3 307.493C366.9 304.793 378.6 302.793 390.4 301.593C400.3 300.593 408.4 300.593 413.8 301.693C418.2 302.593 419.1 303.393 419 304.293C418.5 309.393 410.1 312.493 398.3 310.993C386.7 309.493 378.8 304.193 379.2 299.993C379.7 295.693 384.5 293.193 397.1 290.593L401.7 289.693C417.2 286.693 422.8 284.393 425.2 276.493C427.1 269.993 423.9 264.893 418 262.293C414.8 260.893 411.7 260.193 404.8 259.193L403 258.893C395 257.593 391.6 256.293 391.5 255.893C391.4 255.493 393.3 253.593 399.6 249.993L404 247.493C405.5 246.693 406.9 245.693 408.3 244.793C412.9 241.393 415.5 237.693 414.1 232.493C412.2 225.193 405.1 222.993 393.2 222.093C388.5 221.793 383.9 221.693 379.2 221.793L377.2 221.893C373.5 222.093 370.7 225.293 370.9 228.893C371.1 232.493 374.3 235.393 377.9 235.193L379.6 235.093ZM101 235.093C105.2 234.893 109.3 234.993 113.5 235.293C119 235.693 122.9 236.893 122.6 235.793C122.1 233.993 122.5 233.593 121.8 233.993C120.5 234.993 122.5 233.793 114.4 238.393C102.6 245.093 97.4998 250.193 100.1 259.393C102.4 267.493 108.3 269.693 122.4 271.893L124.3 272.193C129.9 273.093 132.4 273.593 134.1 274.393C134.5 274.593 133.8 273.393 134 272.693C133.8 273.293 130.1 274.793 120.7 276.593L116 277.493C97.8998 281.193 88.8998 285.993 87.4998 298.493C85.9998 312.193 100.2 321.793 118.1 324.093C136.3 326.493 152.2 320.493 153.8 305.693C154.8 296.293 148.3 290.693 137.9 288.593C130.9 287.193 121.6 287.193 110.5 288.293C98.0998 289.593 85.7998 291.693 73.5998 294.593C69.9998 295.293 67.6998 298.793 68.3998 302.393C69.0998 305.993 72.5998 308.293 76.1998 307.593C76.3998 307.593 76.4998 307.493 76.6998 307.493C88.2998 304.793 99.9998 302.793 111.8 301.593C121.7 300.593 129.8 300.593 135.2 301.693C139.6 302.593 140.5 303.393 140.4 304.293C139.9 309.393 131.5 312.493 119.7 310.993C108.1 309.493 100.2 304.193 100.6 299.993C101.1 295.693 105.9 293.193 118.5 290.593L123.1 289.693C138.6 286.693 144.2 284.393 146.6 276.493C148.5 269.993 145.3 264.893 139.4 262.293C136.2 260.893 133.1 260.193 126.2 259.193L124.4 258.893C116.4 257.593 113 256.293 112.9 255.893C112.8 255.493 114.7 253.593 121 249.993L125.4 247.493C126.9 246.693 128.3 245.693 129.7 244.793C134.3 241.393 136.9 237.693 135.5 232.493C133.6 225.193 126.5 222.993 114.6 222.093C109.9 221.793 105.3 221.693 100.6 221.793L98.5998 221.893C94.8998 222.093 92.0998 225.293 92.2998 228.893C92.4998 232.593 95.6998 235.393 99.2998 235.193L101 235.093Z"
            fill="white" />
    </g>
    <defs>
        <clipPath id="clip0_301_705">
            <rect width="513" height="342" fill="white" transform="translate(0 -0.00683594)" />
        </clipPath>
    </defs>
</svg>
