<svg width="513" height="342" viewBox="0 0 513 342" fill="none" xmlns="http://www.w3.org/2000/svg">
    <g clip-path="url(#clip0_301_590)">
        <path d="M0 -0.00244141H513V341.99H0V-0.00244141Z" fill="#0052B4" />
        <path d="M0 154.957H513V187.019H0V154.957Z" fill="#FFDA44" />
        <path
            d="M175.143 256.49L155.982 265.503L166.186 284.061L145.378 280.08L142.742 301.099L128.25 285.64L113.757 301.099L111.121 280.08L90.3139 284.061L100.517 265.503L81.3564 256.49L100.518 247.477L90.3139 228.921L111.12 232.9L113.758 211.881L128.25 227.34L142.743 211.881L145.378 232.9L166.186 228.921L155.983 247.478L175.143 256.49Z"
            fill="white" />
    </g>
    <defs>
        <clipPath id="clip0_301_590">
            <rect width="513" height="342" fill="white" transform="translate(0 -0.00634766)" />
        </clipPath>
    </defs>
</svg>
