<svg width="513" height="342" viewBox="0 0 513 342" fill="none" xmlns="http://www.w3.org/2000/svg">
    <g clip-path="url(#clip0_301_543)">
        <path d="M0 -0.00878906H513V341.991H0V-0.00878906Z" fill="#D80027" />
        <path d="M138 -0.00878906H515V113.991H138V-0.00878906Z" fill="white" />
        <path d="M138 229.991H515V343.991H138V229.991Z" fill="#4A7C3A" />
        <path fill-rule="evenodd" clip-rule="evenodd"
            d="M36.3447 38.2501C36.3443 38.2495 36.344 38.2491 40.3 35.1914C44.2561 32.1337 44.2561 32.1336 44.2562 32.1338L44.3574 32.2644C44.4261 32.3529 44.5291 32.4856 44.6646 32.6595C44.9356 33.0075 45.3365 33.5208 45.8525 34.1775C46.8847 35.4911 48.3767 37.378 50.2108 39.6638C53.8812 44.2382 58.9105 50.3967 64.358 56.749C69.8152 63.1126 75.6444 69.6149 80.9214 74.9011C86.3858 80.375 90.7097 83.9719 93.2433 85.174C99.9034 88.334 103.837 89.6109 105.95 90.1159C106.998 90.3664 107.54 90.4129 107.704 90.421C107.738 90.4227 107.752 90.4226 107.749 90.4226C107.744 90.4226 107.708 90.4229 107.645 90.4277C107.589 90.432 107.51 90.44 107.411 90.455C107.361 90.4625 107.307 90.4717 107.247 90.4832C107.217 90.4889 107.187 90.4951 107.154 90.5019L107.106 90.5127L107.08 90.5184L107.068 90.5213C107.061 90.5228 107.055 90.5243 108.2 95.3914C109.345 100.258 109.339 100.26 109.332 100.261L109.319 100.264L109.293 100.27L109.241 100.282C109.205 100.289 109.169 100.297 109.133 100.304C109.059 100.318 108.984 100.331 108.906 100.343C108.751 100.366 108.585 100.385 108.409 100.398C108.058 100.425 107.66 100.431 107.206 100.409C106.303 100.364 105.139 100.204 103.625 99.8419C100.613 99.1219 95.9966 97.5488 88.9568 94.2087C84.6404 92.1608 79.1892 87.3203 73.8443 81.966C68.3119 76.4241 62.2973 69.7076 56.767 63.2588C51.227 56.7986 46.1252 50.5508 42.4112 45.9221C40.553 43.6063 39.0396 41.6924 37.9893 40.3557C37.4641 39.6872 37.0546 39.1629 36.7754 38.8045C36.6359 38.6254 36.5289 38.4877 36.4564 38.3942L36.3447 38.2501Z"
            fill="white" />
        <path fill-rule="evenodd" clip-rule="evenodd"
            d="M34.6001 95.3915L35.038 100.372L31.2139 91.7127L54.4854 70.2915H51.7001V60.2915H65.3492L65.7001 59.9685V35.1915H75.7001V50.7636L96.6139 31.5127L103.872 38.3553L100 35.1915C103.872 38.3553 103.872 38.3549 103.872 38.3553L103.447 38.8735C103.171 39.21 102.766 39.7036 102.247 40.3337C101.21 41.594 99.7183 43.4008 97.8986 45.5904C94.6033 49.5555 90.2281 54.7811 85.5249 60.2915H89.6001V70.2915H76.881C73.9318 73.6533 71.0222 76.9103 68.3243 79.8387C63.5692 85 59.1164 89.5385 56.246 91.6315C50.9134 95.5199 45.7154 97.6905 41.8278 98.8931C39.881 99.4954 38.25 99.8589 37.0759 100.075C36.4883 100.183 36.0133 100.254 35.6683 100.3C35.4958 100.323 35.3556 100.339 35.2499 100.351C35.197 100.357 35.1527 100.361 35.1173 100.365L35.0709 100.369L35.0528 100.371L35.0414 100.372C35.0397 100.372 35.038 100.372 34.6001 95.3915Z"
            fill="white" />
    </g>
    <defs>
        <clipPath id="clip0_301_543">
            <rect width="513" height="342" fill="white" transform="translate(0 -0.00878906)" />
        </clipPath>
    </defs>
</svg>
