<svg width="513" height="342" viewBox="0 0 513 342" fill="none" xmlns="http://www.w3.org/2000/svg">
<g clip-path="url(#clip0_301_1422)">
<path d="M0 -0.00683594H513V341.993H0V-0.00683594Z" fill="#01237A"/>
<path d="M384 71.3662L389.283 87.6202H406.372L392.546 97.6652L397.827 113.919L384 103.872L370.175 113.919L375.455 97.6652L361.63 87.6202H378.719L384 71.3662ZM313.791 100.447L329.019 108.205L341.103 96.1222L338.43 113.001L353.657 120.76L336.778 123.433L334.104 140.313L326.344 125.086L309.466 127.759L321.552 115.675L313.791 100.447ZM284.71 170.656L300.964 165.375L300.965 148.286L311.009 162.111L327.263 156.829L317.217 170.656L327.263 184.482L311.009 179.202L300.965 193.027V175.937L284.71 170.656ZM313.791 240.865L321.55 225.636L309.466 213.552L326.347 216.226L334.104 200.999L336.778 217.878L353.657 220.55L338.43 228.309L341.103 245.191L329.019 233.104L313.791 240.865ZM384 269.945L378.719 253.692H361.628L375.455 243.647L370.175 227.393L384 237.437L397.827 227.393L392.546 243.647L406.372 253.692H389.283L384 269.945ZM454.209 240.865L438.98 233.107L426.897 245.191L429.57 228.309L414.343 220.553L431.222 217.878L433.897 200.999L441.653 216.226L458.534 213.552L446.448 225.637L454.209 240.865ZM483.29 170.656L467.036 175.937V193.027L456.991 179.201L440.737 184.482L450.783 170.656L440.737 156.829L456.991 162.111L467.036 148.286V165.375L483.29 170.656ZM454.209 100.449L446.452 115.675L458.534 127.759L441.653 125.086L433.897 140.313L431.222 123.433L414.343 120.758L429.57 113.001L426.897 96.1232L438.981 108.205L454.209 100.449ZM0 101.326V117.326H46.069L0 148.038V155.577L57.377 117.325H80L0 170.659H112V101.325H0V101.326ZM96 170.657H22.628L96 121.744V170.657ZM176 53.3262L256 -0.0078125H144V69.3262H256V53.3262H209.931L256 22.6122V15.0732L198.623 53.3242H176V53.3262ZM160 -0.0058136H233.372L160 48.9072V-0.0058136ZM144 170.659H256L176 117.325H198.623L256 155.578V148.039L209.931 117.326H256V101.326H144V170.659ZM160 121.744L233.372 170.657H160V121.744ZM112 -0.0078125H0L80 53.3262H57.377L0 15.0742V22.6132L46.069 53.3252H0V69.3252H112V-0.0078125ZM96 48.9072L22.628 -0.0058136H96V48.9072Z" fill="white"/>
<path d="M144 -0.0078125H112V69.3262H0V101.326H112V170.659H144V101.326H256V69.3262H144V-0.0078125Z" fill="#D80027"/>
<path d="M80 53.3262L0 -0.0078125V15.0742L57.377 53.3262H80ZM176 53.3262H198.623L256 15.0742V-0.0078125L176 53.3262ZM57.377 117.326L0 155.578V170.659L80 117.326H57.377ZM176 117.326L256 170.659V155.578L198.623 117.326H176Z" fill="#D80027"/>
</g>
<defs>
<clipPath id="clip0_301_1422">
<rect width="513" height="342" fill="white" transform="translate(0 -0.00585938)"/>
</clipPath>
</defs>
</svg>
