<svg width="513" height="342" viewBox="0 0 513 342" fill="none" xmlns="http://www.w3.org/2000/svg">
<g clip-path="url(#clip0_301_973)">
<path d="M0 -0.305908H513V341.994H0V-0.305908Z" fill="white"/>
<path d="M462.9 198.094C458.9 198.094 448.9 193.094 441.9 189.094C430.9 183.094 420.9 177.094 410.8 177.094C400.7 177.094 390.8 183.094 379.7 189.094C372.7 193.094 363.7 198.094 359.7 198.094C355.7 198.094 345.7 193.094 339.7 189.094C328.7 183.094 317.7 177.094 307.6 177.094C298.6 177.094 287.6 183.094 276.5 189.094C269.5 193.094 260.5 198.094 256.5 198.094C252.5 198.094 243.5 193.094 236.5 189.094C225.5 183.094 214.5 177.094 205.4 177.094C195.4 177.094 184.4 183.094 173.3 189.094C167.3 193.094 157.3 198.094 153.3 198.094C149.3 198.094 140.3 193.094 133.3 189.094C122.3 183.094 112.3 177.094 102.2 177.094C92.1 177.094 82.2 183.094 71.1 189.094C64.1 193.094 54.1 198.094 50.1 198.094C46.1 198.094 37.1 193.094 30.1 189.094C20.1 183.094 10.1 177.094 0 177.094V199.094L19 209.094C30 215.094 40 221.094 50.1 221.094C60.2 221.094 71.1 215.094 82.2 209.094C88.2 205.094 98.2 199.094 102.2 199.094C106.2 199.094 115.2 205.094 122.2 209.094C133.2 215.094 143.2 221.094 153.3 221.094C163.4 221.094 173.3 215.094 184.4 209.094C191.4 205.094 201.4 199.094 205.4 199.094C209.4 199.094 218.4 205.094 225.4 209.094C236.4 215.094 246.4 221.094 256.5 221.094C266.6 221.094 276.5 215.094 287.6 209.094C294.6 205.094 303.6 199.094 307.6 199.094C311.6 199.094 321.6 205.094 328.6 209.094C339.6 215.094 349.6 221.094 359.7 221.094C369.8 221.094 379.7 215.094 390.8 209.094C397.8 205.094 406.8 199.094 410.8 199.094C414.8 199.094 424.8 205.094 430.8 209.094C441.8 215.094 452.8 221.094 462.9 221.094C473 221.094 482.9 215.094 494 209.094L513 199.094V177.094C503 177.094 493 183.094 482.9 189.094C475.9 193.094 466.9 198.094 462.9 198.094ZM0 31.6941L19 41.6941C30 47.6941 40 53.6941 50.1 53.6941C60.2 53.6941 71.1 47.6941 82.2 41.6941C88.2 37.6941 98.2 31.6941 102.2 31.6941C106.2 31.6941 115.2 37.6941 122.2 41.6941C133.2 47.6941 143.2 53.6941 153.3 53.6941C163.4 53.6941 173.3 47.6941 184.4 41.6941C191.4 37.6941 201.4 31.6941 205.4 31.6941C209.4 31.6941 218.4 37.6941 225.4 41.6941C236.4 47.6941 246.4 53.6941 256.5 53.6941C266.6 53.6941 276.5 47.6941 287.6 41.6941C294.6 37.6941 303.6 31.6941 307.6 31.6941C311.6 31.6941 321.6 37.6941 328.6 41.6941C339.6 47.6941 349.6 53.6941 359.7 53.6941C369.8 53.6941 379.7 47.6941 390.8 41.6941C397.8 37.6941 406.8 31.6941 410.8 31.6941C414.8 31.6941 424.8 37.6941 430.8 41.6941C441.8 47.6941 452.8 53.6941 462.9 53.6941C473 53.6941 482.9 47.6941 494 41.6941L513 31.6941V9.69409C503 10.6941 493 15.6941 482.9 21.6941C475.9 25.6941 466.9 30.6941 462.9 30.6941C458.9 30.6941 448.9 25.6941 441.9 21.6941C430.9 15.6941 420.9 9.69409 410.8 9.69409C400.7 9.69409 390.8 15.6941 379.7 21.6941C372.7 25.6941 363.7 30.6941 359.7 30.6941C355.7 30.6941 345.7 25.6941 339.7 21.6941C328.7 15.6941 317.7 9.69409 307.6 9.69409C297.5 9.69409 287.6 15.6941 276.5 21.6941C269.5 25.6941 260.5 30.6941 256.5 30.6941C252.5 30.6941 243.5 25.6941 236.5 21.6941C225.5 15.6941 214.5 9.69409 205.4 9.69409C196.3 9.69409 184.4 15.6941 173.3 21.6941C167.3 25.6941 157.3 30.6941 153.3 30.6941C149.3 30.6941 140.3 25.6941 133.3 21.6941C122.3 15.6941 112.3 9.69409 102.2 9.69409C92.1 9.69409 82.2 15.6941 71.1 21.6941C64.1 25.6941 54.1 30.6941 50.1 30.6941C46.1 30.6941 37.1 25.6941 30.1 21.6941C20.1 15.6941 10.1 10.6941 0 9.69409V31.6941H0ZM462.9 86.8941C458.9 86.8941 448.9 81.8941 441.9 77.8941C430.9 71.8941 420.9 65.8941 410.8 65.8941C400.7 65.8941 390.8 71.8941 379.7 77.8941C372.7 81.8941 363.7 86.8941 359.7 86.8941C355.7 86.8941 345.7 81.8941 339.7 77.8941C328.7 71.8941 317.7 65.8941 307.6 65.8941C298.6 65.8941 287.6 71.8941 276.5 77.8941C269.5 81.8941 260.5 86.8941 256.5 86.8941C252.5 86.8941 243.5 81.8941 236.5 77.8941C225.5 71.8941 214.5 65.8941 205.4 65.8941C195.4 65.8941 184.4 71.8941 173.3 77.8941C167.3 81.8941 157.3 86.8941 153.3 86.8941C149.3 86.8941 140.3 81.8941 133.3 77.8941C122.3 71.8941 112.3 65.8941 102.2 65.8941C92.1 65.8941 82.2 71.8941 71.1 77.8941C64.1 81.8941 54.1 86.8941 50.1 86.8941C46.1 86.8941 37.1 81.8941 30.1 77.8941C20.1 71.8941 10.1 65.8941 0 65.8941V87.8941L19 96.8941C30 102.894 40 108.894 50.1 108.894C60.2 108.894 71.1 102.894 82.2 96.8941C88.2 92.8941 98.2 87.8941 102.2 87.8941C106.2 87.8941 115.2 92.8941 122.2 96.8941C133.2 102.894 143.2 108.894 153.3 108.894C163.4 108.894 173.3 102.894 184.4 96.8941C191.4 92.8941 201.4 87.8941 205.4 87.8941C209.4 87.8941 218.4 92.8941 225.4 96.8941C236.4 102.894 246.4 108.894 256.5 108.894C266.6 108.894 276.5 102.894 287.6 96.8941C294.6 92.8941 303.6 87.8941 307.6 87.8941C311.6 87.8941 321.6 92.8941 328.6 96.8941C339.6 102.894 349.6 108.894 359.7 108.894C369.8 108.894 379.7 102.894 390.8 96.8941C397.8 92.8941 406.8 87.8941 410.8 87.8941C414.8 87.8941 424.8 92.8941 430.8 96.8941C441.8 102.894 452.8 108.894 462.9 108.894C473 108.894 482.9 102.894 494 96.8941L513 87.8941V65.8941C503 65.8941 493 71.8941 482.9 77.8941C475.9 81.7941 466.9 86.8941 462.9 86.8941ZM513 120.894C503 121.894 493 126.894 482.9 132.894C475.9 136.894 466.9 142.894 462.9 142.894C458.9 142.894 448.9 136.894 441.9 132.894C430.9 126.894 420.9 120.894 410.8 120.894C400.7 120.894 390.8 126.894 379.7 132.894C372.7 136.894 363.7 142.894 359.7 142.894C355.7 142.894 345.7 136.894 339.7 132.894C328.7 126.894 317.7 120.894 307.6 120.894C297.5 120.894 287.6 126.894 276.5 132.894C269.5 136.894 260.5 142.894 256.5 142.894C252.5 142.894 243.5 136.894 236.5 132.894C225.5 126.894 214.5 120.894 205.4 120.894C196.3 120.894 184.4 126.894 173.3 132.894C167.3 136.894 157.3 142.894 153.3 142.894C149.3 142.894 140.3 136.894 133.3 132.894C122.3 126.894 112.3 120.894 102.2 120.894C92.1 120.894 82.2 126.894 71.1 132.894C64.1 136.894 54.1 142.894 50.1 142.894C46.1 142.894 37.1 136.894 30.1 132.894C20.1 126.894 10.1 121.894 0 120.894V143.894C4 144.894 13 148.894 19 152.894C30 158.894 40 164.894 50.1 164.894C60.2 164.894 71.1 158.894 82.2 152.894C88.2 148.894 98.2 143.894 102.2 143.894C106.2 143.894 115.2 148.894 122.2 152.894C133.2 158.894 143.2 164.894 153.3 164.894C163.4 164.894 173.3 158.894 184.4 152.894C191.4 148.894 201.4 143.894 205.4 143.894C209.4 143.894 218.4 148.894 225.4 152.894C236.4 158.894 246.4 164.894 256.5 164.894C266.6 164.894 276.5 158.894 287.6 152.894C294.6 148.894 303.6 143.894 307.6 143.894C311.6 143.894 321.6 148.894 328.6 152.894C339.6 158.894 349.6 164.894 359.7 164.894C369.8 164.894 379.7 158.894 390.8 152.894C397.8 148.894 406.8 143.894 410.8 143.894C414.8 143.894 424.8 148.894 430.8 152.894C441.8 158.894 452.8 164.894 462.9 164.894C473 164.894 482.9 158.894 494 152.894C500 148.894 509 144.894 513 143.894V120.894ZM462.9 254.194C458.9 254.194 448.9 249.194 441.9 245.194C430.9 239.194 420.9 233.194 410.8 233.194C400.7 233.194 390.8 239.194 379.7 245.194C372.7 249.194 363.7 254.194 359.7 254.194C355.7 254.194 345.7 249.194 339.7 245.194C328.7 239.194 317.7 233.194 307.6 233.194C298.6 233.194 287.6 239.194 276.5 245.194C269.5 249.194 260.5 254.194 256.5 254.194C252.5 254.194 243.5 249.194 236.5 245.194C225.5 239.194 214.5 233.194 205.4 233.194C195.4 233.194 184.4 239.194 173.3 245.194C167.3 249.194 157.3 254.194 153.3 254.194C149.3 254.194 140.3 249.194 133.3 245.194C122.3 239.194 112.3 233.194 102.2 233.194C92.1 233.194 82.2 239.194 71.1 245.194C64.1 249.194 54.1 254.194 50.1 254.194C46.1 254.194 37.1 249.194 30.1 245.194C20.1 239.194 10.1 233.194 0 233.194V255.194L19 264.194C30 270.194 40 276.194 50.1 276.194C60.2 276.194 71.1 270.194 82.2 264.194C88.2 260.194 98.2 255.194 102.2 255.194C106.2 255.194 115.2 260.194 122.2 264.194C133.2 270.194 143.2 276.194 153.3 276.194C163.4 276.194 173.3 270.194 184.4 264.194C191.4 260.194 201.4 255.194 205.4 255.194C209.4 255.194 218.4 260.194 225.4 264.194C236.4 270.194 246.4 276.194 256.5 276.194C266.6 276.194 276.5 270.194 287.6 264.194C294.6 260.194 303.6 255.194 307.6 255.194C311.6 255.194 321.6 260.194 328.6 264.194C339.6 270.194 349.6 276.194 359.7 276.194C369.8 276.194 379.7 270.194 390.8 264.194C397.8 260.194 406.8 255.194 410.8 255.194C414.8 255.194 424.8 260.194 430.8 264.194C441.8 270.194 452.8 276.194 462.9 276.194C473 276.194 482.9 270.194 494 264.194L513 255.194V233.194C503 233.194 493 239.194 482.9 245.194C475.9 249.194 466.9 254.194 462.9 254.194ZM513 288.194C503 289.194 493 294.194 482.9 300.194C475.9 304.194 466.9 310.194 462.9 310.194C458.9 310.194 448.9 304.194 441.9 300.194C430.9 294.194 420.9 288.194 410.8 288.194C400.7 288.194 390.8 294.194 379.7 300.194C372.7 304.194 363.7 310.194 359.7 310.194C355.7 310.194 345.7 304.194 339.7 300.194C328.7 294.194 317.7 288.194 307.6 288.194C297.5 288.194 287.6 294.194 276.5 300.194C269.5 304.194 260.5 310.194 256.5 310.194C252.5 310.194 243.5 304.194 236.5 300.194C225.5 294.194 214.5 288.194 205.4 288.194C196.3 288.194 184.4 294.194 173.3 300.194C167.3 304.194 157.3 310.194 153.3 310.194C149.3 310.194 140.3 304.194 133.3 300.194C122.3 294.194 112.3 288.194 102.2 288.194C92.1 288.194 82.2 294.194 71.1 300.194C64.1 304.194 54.1 310.194 50.1 310.194C46.1 310.194 37.1 304.194 30.1 300.194C20.1 294.194 10.1 289.194 0 288.194V311.194C4 311.194 13 316.194 19 320.194C30 326.194 40 332.194 50.1 332.194C60.2 332.194 71.1 326.194 82.2 320.194C88.2 316.194 98.2 311.194 102.2 311.194C106.2 311.194 115.2 316.194 122.2 320.194C133.2 326.194 143.2 332.194 153.3 332.194C163.4 332.194 173.3 326.194 184.4 320.194C191.4 316.194 201.4 311.194 205.4 311.194C209.4 311.194 218.4 316.194 225.4 320.194C236.4 326.194 246.4 332.194 256.5 332.194C266.6 332.194 276.5 326.194 287.6 320.194C294.6 316.194 303.6 311.194 307.6 311.194C311.6 311.194 321.6 316.194 328.6 320.194C339.6 326.194 349.6 332.194 359.7 332.194C369.8 332.194 379.7 326.194 390.8 320.194C397.8 316.194 406.8 311.194 410.8 311.194C414.8 311.194 424.8 316.194 430.8 320.194C441.8 326.194 452.8 332.194 462.9 332.194C473 332.194 482.9 326.194 494 320.194C500 316.194 509 311.194 513 311.194V288.194Z" fill="#0052B4"/>
<path d="M0 -0.305908H256V170.694H0V-0.305908Z" fill="white"/>
<path d="M389.8 119.894H408V198.694H389.7L389.8 119.894ZM389.8 237.694H408V312.794H389.7L389.8 237.694Z" fill="#A2001D"/>
<path d="M144 -0.305908H112V69.6941H0V101.694H112V170.694H144V101.694H256V69.6941H144V-0.305908Z" fill="#D80027"/>
<path d="M0 -0.305908V14.6941L57 53.6941H80L0 -0.305908ZM256 -0.305908V14.6941L199 53.6941H176L256 -0.305908Z" fill="#D80027"/>
<path d="M0 -0.305908V14.6941L57 53.6941H80L0 -0.305908ZM256 -0.305908V14.6941L199 53.6941H176L256 -0.305908ZM0 170.694V155.694L57 117.694H80L0 170.694ZM256 170.694V155.694L199 117.694H176L256 170.694Z" fill="#D80027"/>
<path d="M0 22.6941V53.6941H46L0 22.6941ZM96 -0.305908V48.6941L23 -0.305908H96ZM256 22.6941V53.6941H210L256 22.6941ZM160 -0.305908V48.6941L233 -0.305908H160Z" fill="#2E52B2"/>
<path d="M0 22.6941V53.6941H46L0 22.6941ZM96 -0.305908V48.6941L23 -0.305908H96ZM256 22.6941V53.6941H210L256 22.6941ZM160 -0.305908V48.6941L233 -0.305908H160ZM0 147.694V117.694H46L0 147.694ZM96 170.694V121.694L23 170.694H96ZM256 147.694V117.694H210L256 147.694ZM160 170.694V121.694L233 170.694H160Z" fill="#2E52B2"/>
<path d="M462.8 91.4942H433.7L459.4 65.7942C463.9 61.3942 463.9 54.3942 459.4 49.9942L456 46.5942C451.6 42.1942 444.6 42.1942 440.2 46.5942L414.3 72.4942V37.3942C414.3 31.1942 409.2 26.0942 403 26.0942H398.3C392.1 26.0942 387 31.1942 387 37.3942V69.0942L363.5 45.2942C358.8 40.5942 351.3 40.5942 346.6 45.2942L343 48.8942C338.3 53.5942 338.3 61.2942 343 66.0942L368 91.4942H337.4C331.4 91.4942 326.5 96.3942 326.5 102.394V106.994C326.5 112.994 331.4 117.894 337.4 117.894H369L348.3 138.594C343.9 142.994 343.9 149.994 348.3 154.394L351.7 157.794C356.1 162.194 363.1 162.194 367.5 157.794L387.1 138.194V166.994C387.1 173.094 392.2 178.094 398.4 178.294H403.1C409.3 178.294 414.4 173.194 414.4 166.994V138.694L436.6 161.294C441.3 165.994 449 165.994 453.7 161.294L457.3 157.694C462 152.994 462 145.294 457.3 140.494L435.2 117.994H462.8C468.7 117.994 473.5 113.094 473.7 107.094V102.494C473.7 96.3942 468.8 91.4942 462.8 91.4942Z" fill="#5DA51E"/>
<path fill-rule="evenodd" clip-rule="evenodd" d="M385 37.3942C385 30.0897 390.995 24.0942 398.3 24.0942H403C410.305 24.0942 416.3 30.0897 416.3 37.3942V67.6658L438.786 45.18C443.967 39.999 452.233 39.999 457.414 45.18L460.798 48.5642C460.801 48.5669 460.804 48.5695 460.806 48.5722C466.098 53.7545 466.098 62.0338 460.806 67.2162C460.804 67.2189 460.801 67.2216 460.798 67.2243L438.528 89.4942H462.8C469.916 89.4942 475.7 95.3016 475.7 102.494V107.128L475.699 107.161C475.465 114.165 469.851 119.994 462.8 119.994H439.968L458.729 139.095C464.182 144.664 464.203 153.619 458.714 159.108L455.114 162.708C449.633 168.189 440.667 168.189 435.186 162.708L435.179 162.702L416.4 143.584V166.994C416.4 174.299 410.405 180.294 403.1 180.294H398.368L398.336 180.293C391.128 180.061 385.1 174.244 385.1 166.994V143.023L368.914 159.208C363.733 164.389 355.467 164.389 350.286 159.208L346.886 155.808C341.705 150.627 341.705 142.361 346.886 137.18L364.172 119.894H337.4C330.295 119.894 324.5 114.099 324.5 106.994V102.394C324.5 95.2897 330.295 89.4942 337.4 89.4942H363.225L341.575 67.4972L341.571 67.4935C336.118 61.9243 336.097 52.9692 341.586 47.48L345.186 43.88C350.667 38.399 359.433 38.399 364.914 43.88L364.923 43.889L385 64.2222V37.3942ZM398.3 28.0942C393.205 28.0942 389 32.2988 389 37.3942V73.9663L362.086 46.7085C362.084 46.7071 362.083 46.7057 362.082 46.7043C358.162 42.7895 351.932 42.7909 348.014 46.7085L344.414 50.3085C340.504 54.2188 340.482 60.6625 344.427 64.6934C344.428 64.6939 344.428 64.6945 344.429 64.695L372.775 93.4942H337.4C332.505 93.4942 328.5 97.4988 328.5 102.394V106.994C328.5 111.89 332.505 115.894 337.4 115.894H373.828L349.714 140.008C346.095 143.627 346.095 149.361 349.714 152.98L353.114 156.38C356.733 159.999 362.467 159.999 366.086 156.38L389.1 133.366V166.994C389.1 171.935 393.255 176.111 398.434 176.294H403.1C408.195 176.294 412.4 172.09 412.4 166.994V133.804L438.014 159.88C438.016 159.882 438.018 159.884 438.02 159.886C441.94 163.799 448.369 163.797 452.286 159.88L455.886 156.28C459.796 152.37 459.818 145.926 455.873 141.895C455.872 141.895 455.872 141.894 455.871 141.893L430.432 115.994H462.8C467.538 115.994 471.518 112.041 471.7 107.059V102.494C471.7 97.4869 467.684 93.4942 462.8 93.4942H428.872L457.994 64.3721L458.002 64.3642C461.699 60.7488 461.699 55.0397 458.002 51.4243L457.994 51.4164L454.586 48.0084C450.967 44.3895 445.233 44.3895 441.614 48.0084L412.3 77.3227V37.3942C412.3 32.2988 408.095 28.0942 403 28.0942H398.3Z" fill="#45602C"/>
<path d="M439.2 249.094H359.4C359.4 249.094 358.5 235.694 353.4 227.294C347.2 216.894 339.5 199.194 352 190.594C367.9 179.694 385.7 191.394 400.2 191.394C412 191.494 427.1 177.394 445.2 190.594C457.4 199.494 449.1 218.794 443.9 227.294C436.9 238.794 439.2 249.094 439.2 249.094Z" fill="#E2DD24"/>
<path fill-rule="evenodd" clip-rule="evenodd" d="M400.192 193.394C396.326 193.393 392.31 192.615 388.331 191.684C387.018 191.376 385.718 191.054 384.421 190.733C381.706 190.061 379.009 189.394 376.253 188.872C368.203 187.347 360.431 187.24 353.132 192.243C347.765 195.936 346.594 201.567 347.66 207.939C348.735 214.367 352.057 221.134 355.114 226.263C357.846 230.766 359.399 236.489 360.275 240.959C360.718 243.219 360.997 245.208 361.166 246.634C361.185 246.795 361.202 246.948 361.219 247.094H436.925C436.831 245.886 436.787 244.272 436.931 242.358C437.25 238.091 438.498 232.322 442.192 226.254L442.194 226.25C444.72 222.121 447.962 215.415 449.104 208.756C450.247 202.086 449.226 196.007 444.022 192.21C435.593 186.063 427.955 186.254 420.819 188.023C418.142 188.687 415.602 189.554 413.074 190.417C412.146 190.734 411.219 191.05 410.287 191.355C406.923 192.459 403.496 193.42 400.192 193.394ZM439.2 249.094V251.094H357.53L357.405 249.229L357.404 249.224L357.402 249.2C357.401 249.178 357.398 249.144 357.395 249.098C357.387 249.005 357.376 248.865 357.359 248.682C357.326 248.316 357.273 247.778 357.194 247.104C357.034 245.755 356.769 243.869 356.35 241.729C355.502 237.402 354.056 232.228 351.69 228.332L351.686 228.325L351.682 228.318C348.541 223.049 344.914 215.768 343.715 208.599C342.506 201.371 343.735 193.853 350.866 188.946L350.869 188.945C359.471 183.048 368.548 183.341 376.997 184.942C379.862 185.484 382.747 186.198 385.519 186.884C386.788 187.198 388.034 187.506 389.244 187.789C393.174 188.71 396.818 189.394 400.2 189.394H400.208L400.217 189.394C402.81 189.416 405.693 188.653 409.041 187.555C409.878 187.28 410.747 186.983 411.641 186.678C414.215 185.799 416.998 184.849 419.856 184.14C427.745 182.185 436.707 181.925 446.378 188.978C453.373 194.081 454.303 202.102 453.046 209.432C451.788 216.773 448.28 223.967 445.607 228.337C442.302 233.768 441.2 238.898 440.919 242.656C440.779 244.536 440.844 246.071 440.941 247.12C440.99 247.645 441.047 248.047 441.089 248.31C441.11 248.441 441.128 248.537 441.139 248.596C441.143 248.613 441.146 248.627 441.148 248.638C441.149 248.646 441.151 248.652 441.151 248.656L441.152 248.66C441.152 248.659 441.152 248.658 439.2 249.094Z" fill="#525625"/>
</g>
<defs>
<clipPath id="clip0_301_973">
<rect width="513" height="342" fill="white" transform="translate(0 -0.00585938)"/>
</clipPath>
</defs>
</svg>
