<svg width="513" height="342" viewBox="0 0 513 342" fill="none" xmlns="http://www.w3.org/2000/svg">
<g clip-path="url(#clip0_301_942)">
<path d="M0 -0.00244141H513V341.99H0V-0.00244141Z" fill="#6DA544"/>
<path d="M216.286 171L0 315.186V26.8018L216.286 171ZM513 26.8018V315.186L296.714 171L513 26.8018Z" fill="black"/>
<path d="M513 26.802L296.714 171L513 315.186V341.995H472.797L256.5 197.798L40.2034 341.995H0V315.186L216.286 171L0 26.802V-0.00830078H40.2034L256.5 144.19L472.797 -0.00830078H513V26.802Z" fill="#0052B4"/>
<path d="M513 26.802L296.714 171L513 315.186V341.995H472.797L256.5 197.798L40.2034 341.995H0V315.186L216.286 171L0 26.802V-0.00830078H40.2034L256.5 144.19L472.797 -0.00830078H513V26.802Z" fill="#FFDA44"/>
</g>
<defs>
<clipPath id="clip0_301_942">
<rect width="513" height="342" fill="white" transform="translate(0 -0.00634766)"/>
</clipPath>
</defs>
</svg>
