<svg width="513" height="342" viewBox="0 0 513 342" fill="none" xmlns="http://www.w3.org/2000/svg">
<g clip-path="url(#clip0_301_901)">
<path d="M0 -0.00732422H513V341.993H0V-0.00732422Z" fill="#CE1126"/>
<path d="M259.464 247.828C294.848 247.828 323.532 219.144 323.532 183.76C323.532 148.377 294.848 119.692 259.464 119.692C224.08 119.692 195.396 148.377 195.396 183.76C195.396 219.144 224.08 247.828 259.464 247.828Z" fill="#FCD116"/>
<path d="M289.674 83.6685L262.656 113.308L295.26 120.718L289.674 83.6685ZM230.964 83.8965L225.492 121.63L257.982 112.51L230.964 83.8965ZM338.466 114.334L298.908 124.024L321.822 151.042L338.466 114.334ZM180.804 112.282L198.474 149.56L221.502 123.682L180.804 112.282ZM362.064 163.924L322.848 152.638L329.232 186.268L362.064 163.924ZM154.584 160.96L190.95 183.532L196.878 151.954L154.584 160.96Z" fill="#FCD116"/>
<path d="M0 199.493H513V341.993H0V199.493Z" fill="#003F87"/>
<path d="M0 304.373C17.1 304.373 34.2 319.193 51.3 319.193C68.4 319.193 85.5 304.373 102.6 304.373C119.7 304.373 136.8 319.193 153.9 319.193C171 319.193 188.1 304.373 205.2 304.373C222.3 304.373 239.4 319.193 256.5 319.193C273.6 319.193 290.7 304.373 307.8 304.373C324.9 304.373 342 319.193 359.1 319.193C376.2 319.193 393.3 304.373 410.4 304.373C427.5 304.373 444.6 319.193 461.7 319.193C478.8 319.193 495.9 304.373 513 304.373V280.433C495.9 280.433 478.8 295.253 461.7 295.253C444.6 295.253 427.5 280.433 410.4 280.433C393.3 280.433 376.2 295.253 359.1 295.253C342 295.253 324.9 280.433 307.8 280.433C290.7 280.433 273.6 295.253 256.5 295.253C239.4 295.253 222.3 280.433 205.2 280.433C188.1 280.433 171 295.253 153.9 295.253C136.8 295.253 119.7 280.433 102.6 280.433C85.5 280.433 68.4 295.253 51.3 295.253C34.2 295.253 17.1 280.433 0 280.433V304.373ZM0 255.353C17.1 255.353 34.2 270.173 51.3 270.173C68.4 270.173 85.5 255.353 102.6 255.353C119.7 255.353 136.8 270.173 153.9 270.173C171 270.173 188.1 255.353 205.2 255.353C222.3 255.353 239.4 270.173 256.5 270.173C273.6 270.173 290.7 255.353 307.8 255.353C324.9 255.353 342 270.173 359.1 270.173C376.2 270.173 393.3 255.353 410.4 255.353C427.5 255.353 444.6 270.173 461.7 270.173C478.8 270.173 495.9 255.353 513 255.353V231.413C495.9 231.413 478.8 246.233 461.7 246.233C444.6 246.233 427.5 231.413 410.4 231.413C393.3 231.413 376.2 246.233 359.1 246.233C342 246.233 324.9 231.413 307.8 231.413C290.7 231.413 273.6 246.233 256.5 246.233C239.4 246.233 222.3 231.413 205.2 231.413C188.1 231.413 171 246.233 153.9 246.233C136.8 246.233 119.7 231.413 102.6 231.413C85.5 231.413 68.4 246.233 51.3 246.233C34.2 246.233 17.1 231.413 0 231.413V255.353ZM0 206.333C17.1 206.333 34.2 221.153 51.3 221.153C68.4 221.153 85.5 206.333 102.6 206.333C119.7 206.333 136.8 221.153 153.9 221.153C171 221.153 188.1 206.333 205.2 206.333C222.3 206.333 239.4 221.153 256.5 221.153C273.6 221.153 290.7 206.333 307.8 206.333C324.9 206.333 342 221.153 359.1 221.153C376.2 221.153 393.3 206.333 410.4 206.333C427.5 206.333 444.6 221.153 461.7 221.153C478.8 221.153 495.9 206.333 513 206.333V182.393C495.9 182.393 478.8 197.213 461.7 197.213C444.6 197.213 427.5 182.393 410.4 182.393C393.3 182.393 376.2 197.213 359.1 197.213C342 197.213 324.9 182.393 307.8 182.393C290.7 182.393 273.6 197.213 256.5 197.213C239.4 197.213 222.3 182.393 205.2 182.393C188.1 182.393 171 197.213 153.9 197.213C136.8 197.213 119.7 182.393 102.6 182.393C85.5 182.393 68.4 197.213 51.3 197.213C34.2 197.213 17.1 182.393 0 182.393V206.333Z" fill="white"/>
<path fill-rule="evenodd" clip-rule="evenodd" d="M208.848 55.0545L207.594 49.0125L233.13 44.7945C233.13 44.7945 198.816 36.7005 187.53 32.5965C171.228 26.7825 168.948 18.8025 168.948 18.8025C168.948 18.8025 219.906 31.3425 242.82 31.3425C247.722 31.3425 257.412 43.5405 257.412 43.5405C257.412 43.5405 274.284 26.5545 282.378 25.9845C318.972 23.3625 358.302 18.6885 358.302 18.6885C358.302 18.6885 346.902 26.3265 340.062 28.3785C321.594 33.9645 282.378 41.7165 282.378 41.7165L276.906 50.2665H315.78L299.364 55.1685L307.8 63.0345C307.8 63.0345 298.908 58.3605 287.166 60.6405C279.072 62.1225 269.61 67.4805 261.06 69.7605C239.742 75.2325 226.974 55.1685 226.974 55.1685L208.848 55.0545Z" fill="#FCD116"/>
</g>
<defs>
<clipPath id="clip0_301_901">
<rect width="513" height="342" fill="white" transform="translate(0 -0.00732422)"/>
</clipPath>
</defs>
</svg>
