<svg width="513" height="342" viewBox="0 0 513 342" fill="none" xmlns="http://www.w3.org/2000/svg">
<g clip-path="url(#clip0_301_885)">
<path d="M0 -0.00732422H513V341.993H0V-0.00732422Z" fill="#D80027"/>
<path d="M512 -0.00732422H0V341.993" fill="#6DA544"/>
<path d="M307.7 -0.00732422L0 194.493V341.993H206.9L513 148.493V-0.00732422H307.7Z" fill="#FFDA44"/>
<path d="M513 -0.00732422H385.2L0 249.393V341.993H126.2L513 91.5927V-0.00732422Z" fill="black"/>
<path d="M141.1 186.992L172.3 210.992L204.6 188.792L191.5 225.792L222.6 249.692L183.4 248.592L170.2 285.592L159.1 247.992L119.9 246.892L152.2 224.692L141.1 186.992ZM310.6 70.7925L341.8 94.6925L374.1 72.4925L361 109.492L392.1 133.392L352.9 132.292L339.7 169.292L328.6 131.692L289.4 130.592L321.8 108.392L310.6 70.7925Z" fill="white"/>
</g>
<defs>
<clipPath id="clip0_301_885">
<rect width="513" height="342" fill="white" transform="translate(0 -0.00732422)"/>
</clipPath>
</defs>
</svg>
