<svg width="513" height="342" viewBox="0 0 513 342" fill="none" xmlns="http://www.w3.org/2000/svg">
<g clip-path="url(#clip0_301_844)">
<path d="M0 -0.00732422H513V341.993H0V-0.00732422Z" fill="#36B6CC"/>
<path d="M256.5 239.293C294.276 239.293 324.9 208.669 324.9 170.893C324.9 133.116 294.276 102.493 256.5 102.493C218.724 102.493 188.1 133.116 188.1 170.893C188.1 208.669 218.724 239.293 256.5 239.293Z" fill="#FFD400"/>
<path d="M256.5 251.493L228.6 293.193L221.5 243.493L178.3 268.993L193.5 221.193L143.5 225.393L177.9 188.893L131 170.893L177.8 152.893L143.4 116.393L193.4 120.593L178.2 72.7928L221.4 98.1928L228.5 48.4928L256.4 90.1928L284.3 48.4928L291.4 98.1928L334.6 72.7928L319.4 120.593L369.4 116.393L335.1 152.993L381.9 170.893L335.1 188.893L369.5 225.393L319.5 221.193L334.7 268.993L291.5 243.593L284.4 293.293C284.4 293.193 256.5 251.493 256.5 251.493ZM256.5 250.693C300.6 250.693 336.4 214.893 336.4 170.793C336.4 126.693 300.6 90.9928 256.5 90.9928C212.4 90.9928 176.6 126.793 176.6 170.893C176.6 214.993 212.4 250.693 256.5 250.693ZM22.7998 28.2928C22.7998 25.0928 25.1998 22.5928 28.4998 22.5928H39.7998C42.9998 22.5928 45.4998 24.9928 45.4998 28.2928V39.5928C45.5998 42.6928 43.0998 45.2928 39.8998 45.2928H28.4998C25.3998 45.2928 22.7998 42.7928 22.7998 39.6928V28.2928ZM22.7998 73.9928C22.7998 70.7928 25.1998 68.2928 28.4998 68.2928H39.7998C42.9998 68.2928 45.4998 70.6928 45.4998 73.9928V85.2928C45.5998 88.3928 43.0998 90.9928 39.8998 90.9928H28.4998C25.3998 90.9928 22.7998 88.4928 22.7998 85.3928V73.9928ZM22.7998 119.593C22.7998 116.393 25.1998 113.893 28.4998 113.893H39.7998C42.9998 113.893 45.4998 116.293 45.4998 119.593V130.893C45.5998 133.993 43.0998 136.593 39.8998 136.593H28.4998C25.3998 136.593 22.7998 134.093 22.7998 130.993V119.593ZM22.7998 165.193C22.7998 161.993 25.1998 159.493 28.4998 159.493H39.7998C42.9998 159.493 45.4998 161.893 45.4998 165.193V176.493C45.5998 179.593 43.0998 182.193 39.8998 182.193H28.4998C25.3998 182.193 22.7998 179.693 22.7998 176.593V165.193ZM22.7998 210.893C22.7998 207.693 25.1998 205.193 28.4998 205.193H39.7998C42.9998 205.193 45.4998 207.593 45.4998 210.893V222.193C45.5998 225.293 43.0998 227.893 39.8998 227.893H28.4998C25.3998 227.893 22.7998 225.393 22.7998 222.293V210.893ZM22.7998 256.493C22.7998 253.293 25.1998 250.793 28.4998 250.793H39.7998C42.9998 250.793 45.4998 253.193 45.4998 256.493V267.793C45.5998 270.893 43.0998 273.493 39.8998 273.493H28.4998C25.3998 273.493 22.7998 270.993 22.7998 267.893V256.493ZM22.7998 302.093C22.7998 298.893 25.1998 296.393 28.4998 296.393H39.7998C42.9998 296.393 45.4998 298.793 45.4998 302.093V313.393C45.5998 316.493 43.0998 319.093 39.8998 319.093H28.4998C25.3998 319.093 22.7998 316.593 22.7998 313.493V302.093ZM45.5998 279.293C45.5998 276.093 47.9998 273.593 51.2998 273.593H62.5998C65.7998 273.593 68.2998 275.993 68.2998 279.293V290.593C68.3998 293.693 65.8998 296.293 62.6998 296.293H51.2998C48.1998 296.293 45.5998 293.793 45.5998 290.693V279.293ZM45.5998 233.693C45.5998 230.493 47.9998 227.993 51.2998 227.993H62.5998C65.7998 227.993 68.2998 230.393 68.2998 233.693V244.993C68.3998 248.093 65.8998 250.693 62.6998 250.693H51.2998C48.1998 250.693 45.5998 248.193 45.5998 245.093V233.693ZM45.5998 187.993C45.5998 184.793 47.9998 182.293 51.2998 182.293H62.5998C65.7998 182.293 68.2998 184.693 68.2998 187.993V199.293C68.3998 202.393 65.8998 204.993 62.6998 204.993H51.2998C48.1998 204.993 45.5998 202.493 45.5998 199.393V187.993ZM45.5998 142.393C45.5998 139.193 47.9998 136.693 51.2998 136.693H62.5998C65.7998 136.693 68.2998 139.093 68.2998 142.393V153.693C68.3998 156.793 65.8998 159.393 62.6998 159.393H51.2998C48.1998 159.393 45.5998 156.893 45.5998 153.793V142.393ZM45.5998 96.7928C45.5998 93.5928 47.9998 91.0928 51.2998 91.0928H62.5998C65.7998 91.0928 68.2998 93.4928 68.2998 96.7928V108.093C68.3998 111.193 65.8998 113.793 62.6998 113.793H51.2998C48.1998 113.793 45.5998 111.293 45.5998 108.193V96.7928ZM45.5998 51.1928C45.5998 47.9928 47.9998 45.4928 51.2998 45.4928H62.5998C65.7998 45.4928 68.2998 47.8928 68.2998 51.1928V62.4928C68.3998 65.5928 65.8998 68.1928 62.6998 68.1928H51.2998C48.1998 68.1928 45.5998 65.6928 45.5998 62.5928V51.1928Z" fill="#FFD400"/>
</g>
<defs>
<clipPath id="clip0_301_844">
<rect width="513" height="342" fill="white" transform="translate(0 -0.00732422)"/>
</clipPath>
</defs>
</svg>
