<svg width="513" height="342" viewBox="0 0 513 342" fill="none" xmlns="http://www.w3.org/2000/svg">
<g clip-path="url(#clip0_301_769)">
<path d="M0 -0.0078125H513V341.992H0V-0.0078125Z" fill="#E6BE53"/>
<path d="M20 19.9922H493V321.992H20V19.9922Z" fill="#E01D24"/>
<path d="M248.5 112.892C252.9 117.292 260.1 117.292 264.5 112.892L259.8 117.592L282.5 94.8922C287.4 90.3922 294.6 89.2922 300.7 92.0922L302.8 93.0922C308.5 95.9922 309.5 101.792 305.1 106.192L309.8 101.492L287 124.292C282.5 129.192 281.4 136.392 284.2 142.492L285.2 144.592C288.1 150.292 290.3 159.992 290.3 166.192V154.892C290.3 161.092 294.7 163.992 300.5 161.092L302.6 160.092C308.3 157.192 309.3 151.392 304.9 146.992L309.6 151.692C305.2 147.292 305.2 140.092 309.6 135.692L304.9 140.392C310.1 134.892 314.5 128.792 318 122.192L319 120.092C321.9 114.392 325.3 104.992 326.9 98.8922L332.7 75.5922C334.2 69.5922 338.6 68.7922 342.3 73.7922L362.5 100.692C366.3 105.792 369.4 114.692 369.4 121.292V143.692C369.4 149.992 367.2 159.492 364.3 165.392L363.3 167.492C359.8 174.092 355.4 180.192 350.2 185.692L343.4 192.492C338 197.692 331.9 202.092 325.2 205.592L323.1 206.592C317.4 209.492 307.6 211.692 301.5 211.692C295.3 211.692 294.6 213.892 300.4 216.792L302.5 217.792C308.2 220.692 316.3 226.492 320.7 230.892L316 226.192C320.4 230.592 327.6 230.592 332 226.192L327.3 230.892C331.7 226.492 338.9 226.492 343.3 230.892L339 225.992C343.6 230.892 344.7 238.092 341.9 244.192L340.9 246.292C338 251.992 330.5 256.492 324.5 256.492C317 256.192 309.7 254.492 302.9 251.392L300.8 250.392C294.3 246.792 289 241.492 285.4 234.992L284.4 232.892C281.5 227.192 275.7 226.192 271.3 230.592L276 225.892C271.6 230.592 270.8 237.692 274.2 243.192L284.5 258.592C287.9 263.692 286.5 270.692 281.4 274.092L266 284.392C260.3 287.792 253.2 287.792 247.4 284.392L232 274.092C226.9 270.692 225.5 263.792 228.9 258.592L239.2 243.192C242.6 237.692 241.8 230.592 237.4 225.892L242.1 230.592C237.7 226.192 231.9 226.992 229 232.892L228 234.992C225.1 240.692 218.5 247.392 212.6 250.392L210.5 251.392C204.8 254.292 195 256.492 188.9 256.492C182 256.192 175.8 252.292 172.5 246.292L171.5 244.192C168.7 238.092 169.9 230.892 174.4 225.992L169.7 230.692C174.1 226.292 181.3 226.292 185.7 230.692L181 225.992C185.4 230.392 192.6 230.392 197 225.992L192.3 230.692C197.8 225.492 203.9 221.092 210.5 217.592L212.6 216.592C218.3 213.692 217.6 211.492 211.5 211.492C204 211.192 196.7 209.492 189.9 206.392L187.8 205.392C181.2 201.892 175.1 197.492 169.6 192.292L162.8 185.492C157.6 180.092 153.2 173.992 149.7 167.292L148.7 165.192C145.6 158.392 143.8 150.992 143.6 143.492V120.992C143.6 114.692 146.7 105.392 150.5 100.392L170.7 73.4922C174.5 68.3922 178.8 69.1922 180.3 75.2922L186.1 98.5922C188.1 105.892 190.7 112.992 194 119.792L195 121.892C197.9 127.592 203.7 135.692 208.1 140.092L203.4 135.392C207.8 139.792 207.8 146.992 203.4 151.392L208.1 146.692C203.7 151.092 204.5 156.892 210.4 159.792L212.5 160.792C218.2 163.692 222.7 160.792 222.7 154.592V165.892C222.7 159.692 224.9 150.192 227.8 144.292L228.8 142.192C231.6 136.092 230.5 128.992 226 123.992L203.3 101.292L208 105.992C203.6 101.592 204.4 95.7922 210.3 92.8922L212.4 91.8922C218.5 89.0922 225.6 90.1922 230.6 94.6922L253.3 117.392L248.5 112.892ZM230.5 72.1922C226.1 67.7922 227.3 62.6922 233.3 60.6922L245.7 56.4922C251.7 54.4922 261.2 54.4922 267.2 56.4922L279.6 60.6922C285.6 62.6922 286.8 67.7922 282.4 72.1922L275.6 78.9922C270.3 83.6922 263.5 86.4922 256.4 86.8922C250.2 86.8922 241.6 83.3922 237.2 78.9922C237.3 78.9922 230.5 72.1922 230.5 72.1922Z" fill="#E6BE53"/>
<path d="M233.9 200.193C233.9 206.393 235.6 206.593 238.1 200.693C238.1 200.693 245.2 177.493 256.5 177.493C267.8 177.493 275.1 201.093 275.1 201.093C277.3 206.793 279.1 206.393 279.1 199.993V188.793C279.1 170.093 269 154.893 256.5 154.893C244 154.893 233.9 170.093 233.9 188.793V200.193Z" fill="#215F90"/>
</g>
<defs>
<clipPath id="clip0_301_769">
<rect width="513" height="342" fill="white" transform="translate(0 -0.0078125)"/>
</clipPath>
</defs>
</svg>
