<svg width="513" height="342" viewBox="0 0 513 342" fill="none" xmlns="http://www.w3.org/2000/svg">
<g clip-path="url(#clip0_301_525)">
<path d="M0 -0.00488281H513V341.988H0V-0.00488281Z" fill="white"/>
<path d="M0 -0.00488281H513V113.992H0V-0.00488281ZM0 227.991H513V341.988H0V227.991Z" fill="#D80027"/>
<path d="M294.565 170.992C294.565 192.015 277.522 204.3 256.499 204.3C235.476 204.3 218.434 192.015 218.434 170.992C218.434 149.969 235.477 132.926 256.5 132.926C277.523 132.926 294.565 149.969 294.565 170.992Z" fill="#FFDA44"/>
<path d="M294.565 170.991C294.565 192.014 277.522 209.057 256.499 209.057C235.476 209.057 218.433 192.014 218.433 170.991" fill="#0052B4"/>
<path d="M232.712 161.479H242.229V180.516H232.712V161.479ZM270.775 161.479H280.291V180.516H270.775V161.479ZM251.737 147.204H261.254V180.512H251.737V147.204Z" fill="#D80027"/>
</g>
<defs>
<clipPath id="clip0_301_525">
<rect width="513" height="342" fill="white" transform="translate(0 -0.00878906)"/>
</clipPath>
</defs>
</svg>
